<svg viewBox="0 0 128 128" xmlns="http://www.w3.org/2000/svg"><circle cx="64" cy="64" r="56" fill="var(--theme-bg-soft, #f1f5f9)"/><circle cx="40" cy="50" r="14" fill="var(--theme-accent, #3b82f6)"/><circle cx="64" cy="50" r="14" fill="var(--theme-accent, #3b82f6)"/><circle cx="88" cy="50" r="14" fill="var(--theme-accent, #3b82f6)"/><circle cx="40" cy="50" r="4" fill="var(--theme-text, #1e293b)"/><circle cx="64" cy="50" r="4" fill="var(--theme-text, #1e293b)"/><circle cx="88" cy="50" r="4" fill="var(--theme-text, #1e293b)"/><path d="M32 50 L28 42 L36 46 Z" fill="var(--theme-accent, #3b82f6)"/><path d="M48 50 L52 42 L44 46 Z" fill="var(--theme-accent, #3b82f6)"/><path d="M56 50 L52 42 L60 46 Z" fill="var(--theme-accent, #3b82f6)"/><path d="M72 50 L76 42 L68 46 Z" fill="var(--theme-accent, #3b82f6)"/><path d="M80 50 L84 42 L76 46 Z" fill="var(--theme-accent, #3b82f6)"/><path d="M96 50 L100 42 L92 46 Z" fill="var(--theme-accent, #3b82f6)"/><path d="M40 64 Q64 80 88 64" stroke="var(--theme-text, #1e293b)" stroke-width="4" fill="none" stroke-linecap="round"/></svg>